<svg width="64" height="64" viewBox="0 0 64 64" fill="none" xmlns="http://www.w3.org/2000/svg">
<circle cx="32" cy="32" r="31" stroke="white" stroke-width="2"/>
<path d="M17.718 35.14C16.7847 35.14 15.996 35 15.352 34.72C14.7173 34.44 14.2367 34.048 13.91 33.544C13.5833 33.0307 13.4153 32.4427 13.406 31.78H15.968C15.968 32.0693 16.0333 32.3213 16.164 32.536C16.2947 32.7507 16.4953 32.9187 16.766 33.04C17.0367 33.1613 17.3913 33.222 17.83 33.222C18.3153 33.222 18.698 33.138 18.978 32.97C19.2673 32.7927 19.412 32.5407 19.412 32.214C19.412 31.9993 19.3747 31.822 19.3 31.682C19.2347 31.542 19.118 31.43 18.95 31.346C18.7913 31.2527 18.5673 31.1733 18.278 31.108C17.9887 31.0427 17.6247 30.9773 17.186 30.912C16.598 30.8187 16.08 30.6927 15.632 30.534C15.1933 30.366 14.8247 30.1607 14.526 29.918C14.2273 29.6753 14.0033 29.386 13.854 29.05C13.7047 28.714 13.63 28.322 13.63 27.874C13.63 27.2113 13.7933 26.642 14.12 26.166C14.456 25.6807 14.9273 25.312 15.534 25.06C16.15 24.7987 16.8827 24.668 17.732 24.668C18.544 24.668 19.244 24.7987 19.832 25.06C20.4293 25.312 20.8913 25.6667 21.218 26.124C21.554 26.5813 21.722 27.1133 21.722 27.72H19.202C19.1833 27.4307 19.0993 27.202 18.95 27.034C18.81 26.8567 18.6233 26.7307 18.39 26.656C18.166 26.5813 17.9233 26.544 17.662 26.544C17.3633 26.544 17.1067 26.586 16.892 26.67C16.6773 26.754 16.5093 26.8707 16.388 27.02C16.276 27.16 16.22 27.3327 16.22 27.538C16.22 27.818 16.2947 28.028 16.444 28.168C16.6027 28.308 16.8547 28.4153 17.2 28.49C17.5453 28.5647 17.9933 28.644 18.544 28.728C18.964 28.7933 19.3793 28.882 19.79 28.994C20.2007 29.106 20.574 29.274 20.91 29.498C21.246 29.722 21.5167 30.03 21.722 30.422C21.9273 30.814 22.03 31.3227 22.03 31.948C22.03 32.5733 21.8667 33.1287 21.54 33.614C21.2227 34.09 20.7467 34.4633 20.112 34.734C19.4773 35.0047 18.6793 35.14 17.718 35.14Z" fill="white"/>
<path d="M41.292 42.2791V32.0731H46.304C47.004 32.0731 47.5827 32.1851 48.04 32.4091C48.4974 32.6237 48.8427 32.9271 49.076 33.3191C49.3094 33.7111 49.426 34.1684 49.426 34.6911C49.426 35.0457 49.3654 35.3771 49.244 35.6851C49.1227 35.9837 48.9454 36.2404 48.712 36.4551C48.488 36.6697 48.2127 36.8237 47.886 36.9171V37.0291C48.2874 37.1037 48.6187 37.2531 48.88 37.4771C49.1414 37.7011 49.342 37.9764 49.482 38.3031C49.6314 38.6204 49.706 38.9704 49.706 39.3531C49.706 39.9971 49.5614 40.5384 49.272 40.9771C48.9827 41.4064 48.5627 41.7331 48.012 41.9571C47.4707 42.1717 46.8127 42.2791 46.038 42.2791H41.292ZM43.406 40.5991H45.8C46.388 40.5991 46.8127 40.4731 47.074 40.2211C47.3447 39.9691 47.48 39.6377 47.48 39.2271C47.48 38.7604 47.3354 38.4197 47.046 38.2051C46.766 37.9811 46.3787 37.8691 45.884 37.8691H43.406V40.5991ZM43.406 36.2591H45.786C46.122 36.2591 46.3927 36.2077 46.598 36.1051C46.8127 35.9931 46.9714 35.8437 47.074 35.6571C47.1767 35.4704 47.228 35.2511 47.228 34.9991C47.228 34.5791 47.088 34.2664 46.808 34.0611C46.5374 33.8464 46.1734 33.7391 45.716 33.7391H43.406V36.2591Z" fill="white"/>
<path d="M13.3953 40.1861C38.6977 40.1861 21.5814 48.3721 50.6046 48.3721" stroke="white" stroke-width="3"/>
<path d="M13.3953 17.8605C38.6977 17.8605 20.8372 26.0465 50.6046 25.3023" stroke="white" stroke-width="3"/>
<path d="M50.6046 25.3023C26.7907 25.3023 41.6744 40.9302 13.3953 40.186" stroke="white" stroke-width="3"/>
</svg>
