<?xml version="1.0" encoding="UTF-8"?>
<svg xmlns="http://www.w3.org/2000/svg" width="59" height="56" viewBox="0 0 59 56" fill="none">
  <path d="M58 28C58 42.8632 45.2899 55 29.5 55C13.7101 55 1 42.8632 1 28C1 13.1368 13.7101 1 29.5 1C45.2899 1 58 13.1368 58 28Z" fill="#EDD100" stroke="black" stroke-width="2"></path>
  <path d="M15.7189 29.0302C15.0522 29.0302 14.4889 28.9302 14.0289 28.7302C13.5755 28.5302 13.2322 28.2502 12.9989 27.8902C12.7655 27.5235 12.6455 27.1035 12.6389 26.6302H14.4689C14.4689 26.8368 14.5155 27.0168 14.6089 27.1702C14.7022 27.3235 14.8455 27.4435 15.0389 27.5302C15.2322 27.6168 15.4855 27.6602 15.7989 27.6602C16.1455 27.6602 16.4189 27.6002 16.6189 27.4802C16.8255 27.3535 16.9289 27.1735 16.9289 26.9402C16.9289 26.7868 16.9022 26.6602 16.8489 26.5602C16.8022 26.4602 16.7189 26.3802 16.5989 26.3202C16.4855 26.2535 16.3255 26.1968 16.1189 26.1502C15.9122 26.1035 15.6522 26.0568 15.3389 26.0102C14.9189 25.9435 14.5489 25.8535 14.2289 25.7402C13.9155 25.6202 13.6522 25.4735 13.4389 25.3002C13.2255 25.1268 13.0655 24.9202 12.9589 24.6802C12.8522 24.4402 12.7989 24.1602 12.7989 23.8402C12.7989 23.3668 12.9155 22.9602 13.1489 22.6202C13.3889 22.2735 13.7255 22.0102 14.1589 21.8302C14.5989 21.6435 15.1222 21.5502 15.7289 21.5502C16.3089 21.5502 16.8089 21.6435 17.2289 21.8302C17.6555 22.0102 17.9855 22.2635 18.2189 22.5902C18.4589 22.9168 18.5789 23.2968 18.5789 23.7302H16.7789C16.7655 23.5235 16.7055 23.3602 16.5989 23.2402C16.4989 23.1135 16.3655 23.0235 16.1989 22.9702C16.0389 22.9168 15.8655 22.8902 15.6789 22.8902C15.4655 22.8902 15.2822 22.9202 15.1289 22.9802C14.9755 23.0402 14.8555 23.1235 14.7689 23.2302C14.6889 23.3302 14.6489 23.4535 14.6489 23.6002C14.6489 23.8002 14.7022 23.9502 14.8089 24.0502C14.9222 24.1502 15.1022 24.2268 15.3489 24.2802C15.5955 24.3335 15.9155 24.3902 16.3089 24.4502C16.6089 24.4968 16.9055 24.5602 17.1989 24.6402C17.4922 24.7202 17.7589 24.8402 17.9989 25.0002C18.2389 25.1602 18.4322 25.3802 18.5789 25.6602C18.7255 25.9402 18.7989 26.3035 18.7989 26.7502C18.7989 27.1968 18.6822 27.5935 18.4489 27.9402C18.2222 28.2802 17.8822 28.5468 17.4289 28.7402C16.9755 28.9335 16.4055 29.0302 15.7189 29.0302Z" fill="black"></path>
  <path d="M39.8366 36.7441V29.4541H43.4166C43.9166 29.4541 44.33 29.5341 44.6566 29.6941C44.9833 29.8475 45.23 30.0641 45.3966 30.3441C45.5633 30.6241 45.6466 30.9508 45.6466 31.3241C45.6466 31.5775 45.6033 31.8141 45.5166 32.0341C45.43 32.2475 45.3033 32.4308 45.1366 32.5841C44.9766 32.7375 44.78 32.8475 44.5466 32.9141V32.9941C44.8333 33.0475 45.07 33.1541 45.2566 33.3141C45.4433 33.4741 45.5866 33.6708 45.6866 33.9041C45.7933 34.1308 45.8466 34.3808 45.8466 34.6541C45.8466 35.1141 45.7433 35.5008 45.5366 35.8141C45.33 36.1208 45.03 36.3541 44.6366 36.5141C44.25 36.6675 43.78 36.7441 43.2266 36.7441H39.8366ZM41.3466 35.5441H43.0566C43.4766 35.5441 43.78 35.4541 43.9666 35.2741C44.16 35.0941 44.2566 34.8575 44.2566 34.5641C44.2566 34.2308 44.1533 33.9875 43.9466 33.8341C43.7466 33.6741 43.47 33.5941 43.1166 33.5941H41.3466V35.5441ZM41.3466 32.4441H43.0466C43.2866 32.4441 43.48 32.4075 43.6266 32.3341C43.78 32.2541 43.8933 32.1475 43.9666 32.0141C44.04 31.8808 44.0766 31.7241 44.0766 31.5441C44.0766 31.2441 43.9766 31.0208 43.7766 30.8741C43.5833 30.7208 43.3233 30.6441 42.9966 30.6441H41.3466V32.4441Z" fill="black"></path>
  <path d="M12.3489 35.1628C35.6745 35.1628 19.8954 42.3256 46.6512 42.3256" stroke="black" stroke-width="3"></path>
  <path d="M12.3489 15.6279C35.6745 15.6279 19.2093 22.7907 46.6512 22.1396" stroke="black" stroke-width="3"></path>
  <path d="M46.6512 22.1395C24.6977 22.1395 38.4186 35.8139 12.3489 35.1628" stroke="black" stroke-width="3"></path>
</svg>
