<svg width="100" height="100" viewBox="0 0 100 100" fill="none" xmlns="http://www.w3.org/2000/svg">
<path d="M67.6251 2C66.672 2.17969 65.9845 3.02344 66.0001 4V6H32.0001C31.9376 6 31.8751 6 31.8126 6C30.7814 6.09375 29.9923 6.96094 30.0001 8V22C30.0001 23.1016 30.8985 24 32.0001 24H38.1876C38.5704 26.3047 39.6251 28.3359 41.1251 30H32.0001C31.9376 30 31.8751 30 31.8126 30C31.7501 30 31.6876 30 31.6251 30C30.672 30.1797 29.9845 31.0234 30.0001 32V40C30.0001 41.1016 30.8985 42 32.0001 42H32.7501L10.1876 87.125C9.88292 87.75 9.92198 88.4844 10.297 89.0703C10.6642 89.6484 11.3048 90.0078 12.0001 90H18.0001C18.7345 89.9922 19.4064 89.5859 19.7501 88.9375L44.1251 43.9375L46.0001 94.0625C46.0314 95.1406 46.922 96 48.0001 96H52.0001C53.0782 96 53.9689 95.1406 54.0001 94.0625L55.8751 43.875L80.2501 88.9375C80.5939 89.5859 81.2657 89.9922 82.0001 90H88.0001C88.6954 90.0078 89.336 89.6484 89.7032 89.0703C90.0782 88.4844 90.1173 87.75 89.8126 87.125L67.2501 42H68.0001C69.1017 42 70.0001 41.1016 70.0001 40V32C70.0001 30.8984 69.1017 30 68.0001 30H58.8751C60.3751 28.3359 61.4298 26.3047 61.8126 24H66.0001V26C66.0001 27.1016 66.8985 28 68.0001 28H74.0001C75.1017 28 76.0001 27.1016 76.0001 26V4C76.0001 2.89844 75.1017 2 74.0001 2H68.0001C67.9376 2 67.8751 2 67.8126 2C67.7501 2 67.6876 2 67.6251 2ZM70.0001 6H72.0001V24H70.0001V22.3125C70.0079 22.2109 70.0079 22.1016 70.0001 22V8C70.0001 7.9375 70.0001 7.875 70.0001 7.8125V6ZM34.0001 10H66.0001V20H40.3751C40.1095 19.9453 39.8282 19.9453 39.5626 20H34.0001V10ZM42.3126 24H57.6876C56.8048 27.4609 53.7423 30 50.0001 30C46.2579 30 43.1954 27.4609 42.3126 24ZM34.0001 34H66.0001V38H34.0001V34ZM37.2501 42H40.6876L16.8126 86H15.2501L37.2501 42ZM48.0626 42H51.9376L50.0626 92H49.9376L48.0626 42ZM59.3126 42H62.7501L84.7501 86H83.1876L59.3126 42Z" fill="#5B5B5B" fill-opacity="0.5"/>
</svg>
