<svg width="100" height="100" viewBox="0 0 100 100" fill="none" xmlns="http://www.w3.org/2000/svg">
<path d="M59.6133 8L8 28.6445V44H24V70.8945L8 80.8906V96H56.7227L94 64.9375V54H82V27.0703L94 19.0703V8H59.6133ZM60.3867 12H84.2773L55.4844 28H20.3867L60.3867 12ZM90 13.4023V16.9297L58 38.2617V31.1758L90 13.4023ZM78 29.7383V58H85.8125L55.3516 80H40V44H56.6055L78 29.7383ZM12 32H54V40H36V84H54V92H12V84H28V40H12V32ZM90 59.9102V63.0625L58 89.7305V83.0234L90 59.9102ZM24 75.6094V80H16.9727L24 75.6094Z" fill="#5B5B5B" fill-opacity="0.5"/>
</svg>
