<svg width="100" height="100" viewBox="0 0 100 100" fill="none" xmlns="http://www.w3.org/2000/svg">
<g clip-path="url(#clip0_1987_2034)">
<path d="M51.0001 0C44.9532 0 40.0001 4.95313 40.0001 11C40.0001 17.0547 44.9532 22 51.0001 22C57.0548 22 62.0001 17.0547 62.0001 11C62.0001 4.95313 57.0548 0 51.0001 0ZM51.0001 4C54.8985 4 58.0001 7.11719 58.0001 11C58.0001 14.8906 54.8985 18 51.0001 18C47.1173 18 44.0001 14.8906 44.0001 11C44.0001 7.11719 47.1173 4 51.0001 4ZM36.0001 18.4375C36.0001 18.4375 23.2188 19.0938 21.8126 19.1875C20.3985 19.2812 18.9454 19.7422 17.9376 20.75C17.5782 21.1094 16.797 22.0312 15.5001 23.4375C14.2032 24.8438 12.5157 26.6562 10.8751 28.4375C7.59383 32 4.37508 35.4375 4.37508 35.4375H4.43758V35.5C2.95321 37.1172 2.44539 39.1016 2.87508 40.625C3.31258 42.1641 4.22664 43.125 5.37508 43.6875C6.28133 44.1328 7.55477 44.5156 9.00008 44.3125C9.59383 44.2266 10.2032 44.0312 10.8126 43.75L14.1876 45.4375C13.1798 47.5547 12.3985 49.8828 12.0626 51C11.8282 51.7734 9.10164 61.0547 6.31258 70.5C4.92196 75.2188 3.50008 79.9375 2.43758 83.5625C1.37508 87.1875 0.664144 89.5078 0.500082 90.125C0.289144 90.9453 -0.0467934 92.5781 0.312582 94.5C0.671958 96.4219 2.07039 98.6953 4.75008 99.625C6.20321 100.133 7.64071 100.078 8.81258 99.625C9.98446 99.1719 10.8516 98.3281 11.4376 97.5625C12.5157 96.1484 12.7579 94.8594 12.8126 94.625H12.8751L12.9376 94.375L23.2501 67.25L30.9376 74.375L33.3126 93.1875V93.375H33.3751C33.3829 93.5469 33.3907 94.8438 34.0626 96.375C34.7735 98 36.5938 100 39.3751 100C40.5704 100 41.6329 99.7969 42.5626 99.3125C43.4923 98.8281 44.2266 98.0234 44.6251 97.1875C45.422 95.5078 45.3126 93.8594 45.3126 92.25C45.3126 89.0859 44.6876 75.9062 44.6251 74.6875C44.547 73.1484 44.172 71.7031 43.4376 70.4375C43.4376 70.4141 43.4376 70.3984 43.4376 70.375C42.4923 68.75 36.8204 58.4922 36.0626 57.125L36.3751 56.5L47.4376 62.0625C47.9298 63.6016 48.6173 64.9844 49.6876 66.0625C50.8438 67.2266 52.6641 67.875 54.4376 67.5C55.1798 67.3438 55.9298 67.0391 56.5626 66.625L67.1876 71.875C66.4141 73.0703 65.6641 74.1172 65.0001 74.8125C64.0548 75.8047 63.3829 76.125 63.0001 76.125C61.8126 76.125 60.6329 76.2188 59.5001 76.6875C58.3673 77.1562 57.3204 78.0703 56.7501 79.3125C55.7188 81.5547 48.1876 97.125 48.1876 97.125C47.8829 97.75 47.922 98.4844 48.297 99.0703C48.6641 99.6484 49.3048 100.008 50.0001 100H98.0001C98.6954 100.008 99.336 99.6484 99.7032 99.0703C100.078 98.4844 100.117 97.75 99.8126 97.125C99.8126 97.125 96.4923 90.0781 93.0001 82.625C89.5079 75.1719 85.7579 67.2188 85.1876 65.875C84.3516 63.9219 83.4298 62.4297 82.2501 61.4375C81.0704 60.4453 79.6173 60 78.3126 60C77.2891 60 75.4688 60.2812 74.0001 61.75C72.7423 63.0078 71.3829 65.0547 69.3126 68.5L58.5626 63.0625C58.5938 62.2891 58.4454 61.5156 58.2501 60.6875C57.9454 59.3984 56.6251 52.1328 55.4376 45.5C54.2501 38.8672 53.1251 32.625 53.1251 32.625C52.8985 31.3828 52.2891 30.4219 51.6876 29.4375C51.6876 29.4141 51.6876 29.3984 51.6876 29.375C51.6563 29.0156 51.5235 28.6719 51.3126 28.375C51.3126 28.375 51.1954 28.2578 51.1876 28.25C51.047 28.0625 49.2188 25.6016 44.6876 22.5C40.2735 19.4766 38.3048 18.5703 36.5001 18.5C36.4298 18.5 36.3204 18.4375 36.2501 18.4375C36.1876 18.4375 36.1251 18.4375 36.0626 18.4375C36.0391 18.4375 36.0235 18.4375 36.0001 18.4375ZM35.9376 22.4375C35.961 22.4375 35.9766 22.4375 36.0001 22.4375C36.1016 22.4688 36.2032 22.4844 36.3126 22.5H36.3751C36.836 22.5156 38.0938 22.8359 42.4376 25.8125C46.6563 28.7031 47.8751 30.4766 47.9376 30.5625C47.9376 30.5859 47.9376 30.6016 47.9376 30.625C47.9923 30.7109 48.0548 30.7969 48.1251 30.875C48.5626 31.375 48.9923 32.2109 49.1876 33.3125C49.1876 33.3125 50.3126 39.5469 51.5001 46.1875C52.6876 52.8281 53.9298 59.6797 54.3751 61.5625C54.547 62.2734 54.5782 62.6797 54.5626 62.9375C54.5626 62.9688 54.5626 62.9766 54.5626 63C54.4454 63.1094 54.336 63.2344 54.2501 63.375C54.2501 63.3984 54.2501 63.4141 54.2501 63.4375C54.1251 63.4844 53.9845 63.4844 53.6251 63.5625C53.047 63.6875 52.922 63.6719 52.5001 63.25C52.0782 62.8281 51.5704 61.8672 51.1876 60.5625C51.172 60.5 51.086 60.1406 51.0626 60.0625C51.047 60 51.0235 59.9375 51.0001 59.875C50.2501 57.1875 47.5626 46.2969 46.0626 40.25C45.8751 39.4688 45.2423 38.875 44.4532 38.7422C43.6641 38.6016 42.8751 38.9531 42.4376 39.625L34.8126 51.25L20.0001 43.8125C21.6641 41.4766 25.7813 35.6484 28.5001 31.4375C28.9298 30.8125 28.961 29.9922 28.5938 29.3359C28.2188 28.6719 27.5079 28.2734 26.7501 28.3125L22.0001 28.5625C21.5079 28.5859 21.0391 28.7812 20.6876 29.125L10.6876 39.0625L10.6251 39.125C10.4063 39.3281 10.1954 39.4844 10.0001 39.625C9.97664 39.6406 9.96102 39.6719 9.93758 39.6875C9.89852 39.7031 9.85164 39.7266 9.81258 39.75C9.70321 39.8047 9.60164 39.8672 9.50008 39.9375C9.42196 39.9844 9.38289 40.0859 9.31258 40.125C8.98446 40.2891 8.65633 40.3438 8.43758 40.375C7.93758 40.4453 7.56258 40.3359 7.12508 40.125C7.28133 40.2031 6.82821 39.8438 6.75008 39.5625C6.67196 39.2812 6.52352 39.0312 7.31258 38.1875C7.33602 38.1641 7.35164 38.1484 7.37508 38.125C7.37508 38.125 10.5313 34.6875 13.8126 31.125C15.4532 29.3438 17.1407 27.5234 18.4376 26.125C19.7345 24.7266 20.7501 23.625 20.7501 23.625C21.1251 23.25 21.0548 23.25 22.0626 23.1875C23.0626 23.125 35.4923 22.4609 35.9376 22.4375ZM22.7501 32.6875C19.9454 36.7891 17.172 40.7656 16.3126 42L14.3751 41L22.7501 32.6875ZM43.3126 45.625C44.2735 49.5312 45.297 53.5312 46.1251 56.875L38.4376 53.0625L43.3126 45.625ZM17.8751 47.25L32.8126 54.75L32.0001 56.375C31.7266 56.9531 31.7501 57.625 32.0626 58.1875C32.0626 58.1875 38.7579 70.4062 39.9376 72.4375C40.1329 72.7734 40.586 74.1641 40.6251 74.9375C40.6798 76.0234 41.3126 89.6641 41.3126 92.25C41.3126 93.8594 41.1798 95.1172 41.0001 95.5C40.9063 95.6953 40.922 95.6641 40.7501 95.75C40.5782 95.8359 40.1329 96 39.3751 96C38.2501 96 38.0391 95.5547 37.6876 94.75C37.336 93.9453 37.3126 93.0625 37.3126 93.0625C37.3126 93 37.3126 92.9375 37.3126 92.875L34.8751 73.1875C34.8204 72.7109 34.6016 72.2656 34.2501 71.9375L23.7501 62.25C23.2657 61.8125 22.5938 61.6484 21.961 61.7969C21.3282 61.9453 20.8048 62.3984 20.5626 63L9.12508 93.25C9.10164 93.3125 9.07821 93.375 9.06258 93.4375C9.06258 93.4375 8.80477 94.4609 8.25008 95.1875C7.97664 95.5547 7.66414 95.7656 7.37508 95.875C7.08602 95.9844 6.77352 96.0547 6.06258 95.8125C4.66414 95.3281 4.42977 94.6953 4.25008 93.75C4.07039 92.8047 4.24227 91.625 4.37508 91.125C4.38289 91.0859 5.18758 88.3125 6.25008 84.6875C7.31258 81.0625 8.73446 76.3438 10.1251 71.625C12.9141 62.1875 15.7345 52.6016 15.8751 52.125C16.1095 51.3516 17.0079 49.0781 17.8751 47.25ZM77.5626 64C77.7032 63.9531 77.836 64 78.3126 64C78.7579 64 79.0938 64.0547 79.6251 64.5C80.1563 64.9453 80.836 65.8672 81.5001 67.4375C82.2501 69.2031 85.8829 76.8594 89.3751 84.3125C92.172 90.2891 93.8516 93.9609 94.8126 96H53.1876C54.8907 92.4688 59.3985 83.1172 60.3751 81C60.5391 80.6406 60.6798 80.5312 61.0626 80.375C61.4454 80.2188 62.1016 80.125 63.0001 80.125C64.961 80.125 66.5391 78.9531 67.8751 77.5625C69.0313 76.3516 70.0782 74.7891 71.1251 73.0625C71.1485 73.0391 71.1641 73.0234 71.1876 73C71.2032 72.9766 71.2345 72.9609 71.2501 72.9375C71.922 72.5859 72.3282 71.8828 72.3126 71.125C74.547 67.3984 76.0079 65.4297 76.8126 64.625C77.2579 64.1797 77.422 64.0469 77.5626 64Z" fill="#5B5B5B" fill-opacity="0.5"/>
</g>
<defs>
<clipPath id="clip0_1987_2034">
<rect width="100" height="100" fill="white"/>
</clipPath>
</defs>
</svg>
