<svg width="43" height="45" viewBox="0 0 43 45" fill="none" xmlns="http://www.w3.org/2000/svg">
<path d="M12.37 24.1C11.7033 24.1 11.14 24 10.68 23.8C10.2267 23.6 9.88333 23.32 9.65 22.96C9.41667 22.5933 9.29667 22.1733 9.29 21.7H11.12C11.12 21.9067 11.1667 22.0867 11.26 22.24C11.3533 22.3933 11.4967 22.5133 11.69 22.6C11.8833 22.6867 12.1367 22.73 12.45 22.73C12.7967 22.73 13.07 22.67 13.27 22.55C13.4767 22.4233 13.58 22.2433 13.58 22.01C13.58 21.8567 13.5533 21.73 13.5 21.63C13.4533 21.53 13.37 21.45 13.25 21.39C13.1367 21.3233 12.9767 21.2667 12.77 21.22C12.5633 21.1733 12.3033 21.1267 11.99 21.08C11.57 21.0133 11.2 20.9233 10.88 20.81C10.5667 20.69 10.3033 20.5433 10.09 20.37C9.87667 20.1967 9.71667 19.99 9.61 19.75C9.50333 19.51 9.45 19.23 9.45 18.91C9.45 18.4367 9.56667 18.03 9.8 17.69C10.04 17.3433 10.3767 17.08 10.81 16.9C11.25 16.7133 11.7733 16.62 12.38 16.62C12.96 16.62 13.46 16.7133 13.88 16.9C14.3067 17.08 14.6367 17.3333 14.87 17.66C15.11 17.9867 15.23 18.3667 15.23 18.8H13.43C13.4167 18.5933 13.3567 18.43 13.25 18.31C13.15 18.1833 13.0167 18.0933 12.85 18.04C12.69 17.9867 12.5167 17.96 12.33 17.96C12.1167 17.96 11.9333 17.99 11.78 18.05C11.6267 18.11 11.5067 18.1933 11.42 18.3C11.34 18.4 11.3 18.5233 11.3 18.67C11.3 18.87 11.3533 19.02 11.46 19.12C11.5733 19.22 11.7533 19.2967 12 19.35C12.2467 19.4033 12.5667 19.46 12.96 19.52C13.26 19.5667 13.5567 19.63 13.85 19.71C14.1433 19.79 14.41 19.91 14.65 20.07C14.89 20.23 15.0833 20.45 15.23 20.73C15.3767 21.01 15.45 21.3733 15.45 21.82C15.45 22.2667 15.3333 22.6633 15.1 23.01C14.8733 23.35 14.5333 23.6167 14.08 23.81C13.6267 24.0033 13.0567 24.1 12.37 24.1Z" fill="black"/>
<path d="M27.79 30V22.71H31.37C31.87 22.71 32.2833 22.79 32.61 22.95C32.9367 23.1033 33.1833 23.32 33.35 23.6C33.5167 23.88 33.6 24.2067 33.6 24.58C33.6 24.8333 33.5567 25.07 33.47 25.29C33.3833 25.5033 33.2567 25.6867 33.09 25.84C32.93 25.9933 32.7333 26.1033 32.5 26.17V26.25C32.7867 26.3033 33.0233 26.41 33.21 26.57C33.3967 26.73 33.54 26.9267 33.64 27.16C33.7467 27.3867 33.8 27.6367 33.8 27.91C33.8 28.37 33.6967 28.7567 33.49 29.07C33.2833 29.3767 32.9833 29.61 32.59 29.77C32.2033 29.9233 31.7333 30 31.18 30H27.79ZM29.3 28.8H31.01C31.43 28.8 31.7333 28.71 31.92 28.53C32.1133 28.35 32.21 28.1133 32.21 27.82C32.21 27.4867 32.1067 27.2433 31.9 27.09C31.7 26.93 31.4233 26.85 31.07 26.85H29.3V28.8ZM29.3 25.7H31C31.24 25.7 31.4333 25.6633 31.58 25.59C31.7333 25.51 31.8467 25.4033 31.92 25.27C31.9933 25.1367 32.03 24.98 32.03 24.8C32.03 24.5 31.93 24.2767 31.73 24.13C31.5367 23.9767 31.2767 23.9 30.95 23.9H29.3V25.7Z" fill="black" fill-opacity="0.92"/>
<path d="M9 28C26 28 14.5 33.5 34 33.5" stroke="black" stroke-width="3"/>
<path d="M9 13C26 13 14 18.5 34 18" stroke="black" stroke-width="3"/>
<path d="M34 18C18 18 28 28.5 9 28" stroke="black" stroke-width="3"/>
<circle cx="21.5" cy="22.5" r="20.5" stroke="black" stroke-width="2"/>
</svg>
